<mxfile host="app.diagrams.net" modified="2023-12-14T11:09:49.322Z" agent="Mozilla/5.0 (Windows NT 10.0; Win64; x64) AppleWebKit/537.36 (KHTML, like Gecko) Chrome/120.0.0.0 Safari/537.36 Edg/120.0.0.0" etag="utDd9_dU3hldFNBTLhb7" version="22.1.8" type="github">
  <diagram name="第 1 页" id="9UHHBy8KHaBcyBZ6EV69">
    <mxGraphModel dx="1546" dy="369" grid="1" gridSize="10" guides="1" tooltips="1" connect="1" arrows="1" fold="1" page="1" pageScale="1" pageWidth="827" pageHeight="1169" math="0" shadow="0">
      <root>
        <mxCell id="0" />
        <mxCell id="1" parent="0" />
        <mxCell id="d21k7wk4vE7VCG-q3FPW-1" value="系統管理員" style="shape=umlActor;verticalLabelPosition=bottom;verticalAlign=top;html=1;outlineConnect=0;" vertex="1" parent="1">
          <mxGeometry x="50" y="206" width="35" height="44" as="geometry" />
        </mxCell>
        <mxCell id="d21k7wk4vE7VCG-q3FPW-3" value="" style="ellipse;whiteSpace=wrap;html=1;fillColor=#f3ff94;strokeColor=#f44343;" vertex="1" parent="1">
          <mxGeometry x="160" y="120" width="70" height="30" as="geometry" />
        </mxCell>
        <mxCell id="d21k7wk4vE7VCG-q3FPW-4" value="" style="shape=partialRectangle;whiteSpace=wrap;html=1;left=0;right=0;fillColor=none;strokeColor=#fd4444;" vertex="1" parent="1">
          <mxGeometry x="7.5" y="270" width="120" height="8" as="geometry" />
        </mxCell>
        <mxCell id="d21k7wk4vE7VCG-q3FPW-5" value="&lt;ul&gt;&lt;li&gt;manageUser()&lt;/li&gt;&lt;li&gt;manageShopManaget()&lt;/li&gt;&lt;/ul&gt;" style="text;strokeColor=none;fillColor=none;html=1;whiteSpace=wrap;verticalAlign=middle;overflow=hidden;" vertex="1" parent="1">
          <mxGeometry x="-22.5" y="270" width="180" height="50" as="geometry" />
        </mxCell>
        <mxCell id="d21k7wk4vE7VCG-q3FPW-6" value="" style="ellipse;whiteSpace=wrap;html=1;fillColor=#f3ff94;strokeColor=#f44343;" vertex="1" parent="1">
          <mxGeometry x="260" y="180" width="70" height="30" as="geometry" />
        </mxCell>
        <mxCell id="d21k7wk4vE7VCG-q3FPW-7" value="" style="ellipse;whiteSpace=wrap;html=1;fillColor=#f3ff94;strokeColor=#f44343;" vertex="1" parent="1">
          <mxGeometry x="160" y="340" width="70" height="30" as="geometry" />
        </mxCell>
        <mxCell id="d21k7wk4vE7VCG-q3FPW-8" value="系統登錄" style="text;html=1;align=center;verticalAlign=middle;resizable=0;points=[];autosize=1;strokeColor=none;fillColor=none;fontSize=9;" vertex="1" parent="1">
          <mxGeometry x="165" y="150" width="60" height="20" as="geometry" />
        </mxCell>
        <mxCell id="d21k7wk4vE7VCG-q3FPW-10" value="" style="ellipse;whiteSpace=wrap;html=1;fillColor=#f3ff94;strokeColor=#f44343;" vertex="1" parent="1">
          <mxGeometry x="260" y="290" width="70" height="30" as="geometry" />
        </mxCell>
        <mxCell id="d21k7wk4vE7VCG-q3FPW-14" value="系統維護" style="text;html=1;align=center;verticalAlign=middle;resizable=0;points=[];autosize=1;strokeColor=none;fillColor=none;fontSize=9;" vertex="1" parent="1">
          <mxGeometry x="165" y="370" width="60" height="20" as="geometry" />
        </mxCell>
        <mxCell id="d21k7wk4vE7VCG-q3FPW-15" value="&lt;font style=&quot;font-size: 9px;&quot;&gt;商家信息管理&lt;/font&gt;" style="text;html=1;align=center;verticalAlign=middle;resizable=0;points=[];autosize=1;strokeColor=none;fillColor=none;" vertex="1" parent="1">
          <mxGeometry x="255" y="206" width="80" height="30" as="geometry" />
        </mxCell>
        <mxCell id="d21k7wk4vE7VCG-q3FPW-16" value="&lt;font style=&quot;font-size: 9px;&quot;&gt;訂餐者信息管理&lt;/font&gt;" style="text;html=1;align=center;verticalAlign=middle;resizable=0;points=[];autosize=1;strokeColor=none;fillColor=none;" vertex="1" parent="1">
          <mxGeometry x="250" y="308" width="90" height="30" as="geometry" />
        </mxCell>
        <mxCell id="d21k7wk4vE7VCG-q3FPW-19" value="" style="endArrow=openThin;endFill=0;endSize=7;html=1;rounded=0;strokeColor=#f40b0b;entryX=0;entryY=0.5;entryDx=0;entryDy=0;" edge="1" parent="1" target="d21k7wk4vE7VCG-q3FPW-6">
          <mxGeometry width="160" relative="1" as="geometry">
            <mxPoint x="90" y="227.66" as="sourcePoint" />
            <mxPoint x="250" y="227.66" as="targetPoint" />
          </mxGeometry>
        </mxCell>
        <mxCell id="d21k7wk4vE7VCG-q3FPW-20" value="" style="endArrow=openThin;endFill=0;endSize=7;html=1;rounded=0;strokeColor=#f40b0b;entryX=0;entryY=0.5;entryDx=0;entryDy=0;" edge="1" parent="1" target="d21k7wk4vE7VCG-q3FPW-10">
          <mxGeometry width="160" relative="1" as="geometry">
            <mxPoint x="90" y="238" as="sourcePoint" />
            <mxPoint x="250" y="300" as="targetPoint" />
          </mxGeometry>
        </mxCell>
        <mxCell id="d21k7wk4vE7VCG-q3FPW-21" value="" style="endArrow=openThin;endFill=0;endSize=7;html=1;rounded=0;strokeColor=#f40b0b;entryX=0.023;entryY=0.753;entryDx=0;entryDy=0;entryPerimeter=0;" edge="1" parent="1" target="d21k7wk4vE7VCG-q3FPW-3">
          <mxGeometry width="160" relative="1" as="geometry">
            <mxPoint x="85" y="212.66" as="sourcePoint" />
            <mxPoint x="255" y="180" as="targetPoint" />
          </mxGeometry>
        </mxCell>
        <mxCell id="d21k7wk4vE7VCG-q3FPW-22" value="" style="endArrow=openThin;endFill=0;endSize=7;html=1;rounded=0;strokeColor=#f40b0b;entryX=0.143;entryY=0;entryDx=0;entryDy=0;entryPerimeter=0;" edge="1" parent="1" target="d21k7wk4vE7VCG-q3FPW-7">
          <mxGeometry width="160" relative="1" as="geometry">
            <mxPoint x="90" y="250" as="sourcePoint" />
            <mxPoint x="290" y="225" as="targetPoint" />
          </mxGeometry>
        </mxCell>
        <mxCell id="d21k7wk4vE7VCG-q3FPW-23" value="" style="ellipse;whiteSpace=wrap;html=1;fillColor=#f3ff94;strokeColor=#f44343;" vertex="1" parent="1">
          <mxGeometry x="400" y="70" width="70" height="30" as="geometry" />
        </mxCell>
        <mxCell id="d21k7wk4vE7VCG-q3FPW-24" value="&lt;font style=&quot;font-size: 9px;&quot;&gt;增加商家信息&lt;/font&gt;" style="text;html=1;align=center;verticalAlign=middle;resizable=0;points=[];autosize=1;strokeColor=none;fillColor=none;" vertex="1" parent="1">
          <mxGeometry x="395" y="90" width="80" height="30" as="geometry" />
        </mxCell>
        <mxCell id="d21k7wk4vE7VCG-q3FPW-25" value="" style="ellipse;whiteSpace=wrap;html=1;fillColor=#f3ff94;strokeColor=#f44343;" vertex="1" parent="1">
          <mxGeometry x="475" y="110" width="70" height="30" as="geometry" />
        </mxCell>
        <mxCell id="d21k7wk4vE7VCG-q3FPW-26" value="&lt;font style=&quot;font-size: 9px;&quot;&gt;修改商家信息&lt;/font&gt;" style="text;html=1;align=center;verticalAlign=middle;resizable=0;points=[];autosize=1;strokeColor=none;fillColor=none;" vertex="1" parent="1">
          <mxGeometry x="470" y="130" width="80" height="30" as="geometry" />
        </mxCell>
        <mxCell id="d21k7wk4vE7VCG-q3FPW-27" value="" style="ellipse;whiteSpace=wrap;html=1;fillColor=#f3ff94;strokeColor=#f44343;" vertex="1" parent="1">
          <mxGeometry x="510" y="170" width="70" height="30" as="geometry" />
        </mxCell>
        <mxCell id="d21k7wk4vE7VCG-q3FPW-28" value="&lt;font style=&quot;font-size: 9px;&quot;&gt;查詢商家信息&lt;/font&gt;" style="text;html=1;align=center;verticalAlign=middle;resizable=0;points=[];autosize=1;strokeColor=none;fillColor=none;" vertex="1" parent="1">
          <mxGeometry x="505" y="190" width="80" height="30" as="geometry" />
        </mxCell>
        <mxCell id="d21k7wk4vE7VCG-q3FPW-29" value="" style="ellipse;whiteSpace=wrap;html=1;fillColor=#f3ff94;strokeColor=#f44343;" vertex="1" parent="1">
          <mxGeometry x="400" y="206" width="70" height="30" as="geometry" />
        </mxCell>
        <mxCell id="d21k7wk4vE7VCG-q3FPW-30" value="&lt;font style=&quot;font-size: 9px;&quot;&gt;剩餘商家信息&lt;/font&gt;" style="text;html=1;align=center;verticalAlign=middle;resizable=0;points=[];autosize=1;strokeColor=none;fillColor=none;" vertex="1" parent="1">
          <mxGeometry x="395" y="226" width="80" height="30" as="geometry" />
        </mxCell>
        <mxCell id="d21k7wk4vE7VCG-q3FPW-31" value="&amp;lt;&amp;lt;include&amp;gt;&amp;gt;" style="endArrow=openThin;endSize=7;dashed=1;html=1;rounded=0;entryX=0;entryY=0.5;entryDx=0;entryDy=0;strokeColor=#fd0d0d;endFill=0;labelBackgroundColor=none;exitX=0.714;exitY=-0.052;exitDx=0;exitDy=0;exitPerimeter=0;" edge="1" parent="1" source="d21k7wk4vE7VCG-q3FPW-6" target="d21k7wk4vE7VCG-q3FPW-23">
          <mxGeometry width="160" relative="1" as="geometry">
            <mxPoint x="330" y="180" as="sourcePoint" />
            <mxPoint x="490" y="184.66" as="targetPoint" />
          </mxGeometry>
        </mxCell>
        <mxCell id="d21k7wk4vE7VCG-q3FPW-32" value="&amp;lt;&amp;lt;include&amp;gt;&amp;gt;" style="endArrow=openThin;endSize=7;dashed=1;html=1;rounded=0;exitX=1;exitY=0.5;exitDx=0;exitDy=0;entryX=0;entryY=0.5;entryDx=0;entryDy=0;strokeColor=#fd0d0d;endFill=0;labelBackgroundColor=none;" edge="1" parent="1" source="d21k7wk4vE7VCG-q3FPW-6" target="d21k7wk4vE7VCG-q3FPW-25">
          <mxGeometry width="160" relative="1" as="geometry">
            <mxPoint x="335" y="200" as="sourcePoint" />
            <mxPoint x="410" y="95" as="targetPoint" />
          </mxGeometry>
        </mxCell>
        <mxCell id="d21k7wk4vE7VCG-q3FPW-33" value="&amp;lt;&amp;lt;include&amp;gt;&amp;gt;" style="endArrow=openThin;endSize=7;dashed=1;html=1;rounded=0;exitX=0.825;exitY=-0.036;exitDx=0;exitDy=0;exitPerimeter=0;entryX=0;entryY=0.5;entryDx=0;entryDy=0;strokeColor=#fd0d0d;endFill=0;labelBackgroundColor=none;" edge="1" parent="1" source="d21k7wk4vE7VCG-q3FPW-15" target="d21k7wk4vE7VCG-q3FPW-27">
          <mxGeometry width="160" relative="1" as="geometry">
            <mxPoint x="345" y="210" as="sourcePoint" />
            <mxPoint x="420" y="105" as="targetPoint" />
          </mxGeometry>
        </mxCell>
        <mxCell id="d21k7wk4vE7VCG-q3FPW-34" value="&amp;lt;&amp;lt;include&amp;gt;&amp;gt;" style="endArrow=openThin;endSize=7;dashed=1;html=1;rounded=0;exitX=0.694;exitY=0.093;exitDx=0;exitDy=0;exitPerimeter=0;entryX=0;entryY=0.5;entryDx=0;entryDy=0;strokeColor=#fd0d0d;endFill=0;labelBackgroundColor=none;" edge="1" parent="1" source="d21k7wk4vE7VCG-q3FPW-15" target="d21k7wk4vE7VCG-q3FPW-29">
          <mxGeometry width="160" relative="1" as="geometry">
            <mxPoint x="370" y="305" as="sourcePoint" />
            <mxPoint x="445" y="200" as="targetPoint" />
          </mxGeometry>
        </mxCell>
        <mxCell id="d21k7wk4vE7VCG-q3FPW-35" value="&amp;lt;&amp;lt;include&amp;gt;&amp;gt;" style="endArrow=openThin;endSize=7;dashed=1;html=1;rounded=0;exitX=0.935;exitY=0.334;exitDx=0;exitDy=0;exitPerimeter=0;strokeColor=#fd0d0d;endFill=0;labelBackgroundColor=none;entryX=0.071;entryY=0.8;entryDx=0;entryDy=0;entryPerimeter=0;" edge="1" parent="1" target="d21k7wk4vE7VCG-q3FPW-36">
          <mxGeometry width="160" relative="1" as="geometry">
            <mxPoint x="325" y="295" as="sourcePoint" />
            <mxPoint x="400" y="280" as="targetPoint" />
          </mxGeometry>
        </mxCell>
        <mxCell id="d21k7wk4vE7VCG-q3FPW-36" value="" style="ellipse;whiteSpace=wrap;html=1;fillColor=#f3ff94;strokeColor=#f44343;" vertex="1" parent="1">
          <mxGeometry x="395" y="256" width="70" height="30" as="geometry" />
        </mxCell>
        <mxCell id="d21k7wk4vE7VCG-q3FPW-37" value="&lt;font style=&quot;font-size: 9px;&quot;&gt;增加訂餐者信息&lt;/font&gt;" style="text;html=1;align=center;verticalAlign=middle;resizable=0;points=[];autosize=1;strokeColor=none;fillColor=none;" vertex="1" parent="1">
          <mxGeometry x="390" y="278" width="90" height="30" as="geometry" />
        </mxCell>
        <mxCell id="d21k7wk4vE7VCG-q3FPW-38" value="" style="ellipse;whiteSpace=wrap;html=1;fillColor=#f3ff94;strokeColor=#f44343;" vertex="1" parent="1">
          <mxGeometry x="505" y="300" width="70" height="30" as="geometry" />
        </mxCell>
        <mxCell id="d21k7wk4vE7VCG-q3FPW-39" value="&lt;font style=&quot;font-size: 9px;&quot;&gt;修改訂餐者信息&lt;/font&gt;" style="text;html=1;align=center;verticalAlign=middle;resizable=0;points=[];autosize=1;strokeColor=none;fillColor=none;" vertex="1" parent="1">
          <mxGeometry x="495" y="320" width="90" height="30" as="geometry" />
        </mxCell>
        <mxCell id="d21k7wk4vE7VCG-q3FPW-40" value="" style="ellipse;whiteSpace=wrap;html=1;fillColor=#f3ff94;strokeColor=#f44343;" vertex="1" parent="1">
          <mxGeometry x="505" y="365" width="70" height="30" as="geometry" />
        </mxCell>
        <mxCell id="d21k7wk4vE7VCG-q3FPW-41" value="" style="ellipse;whiteSpace=wrap;html=1;fillColor=#f3ff94;strokeColor=#f44343;" vertex="1" parent="1">
          <mxGeometry x="378" y="395" width="70" height="34" as="geometry" />
        </mxCell>
        <mxCell id="d21k7wk4vE7VCG-q3FPW-43" value="&lt;font style=&quot;font-size: 9px;&quot;&gt;查詢訂餐者信息&lt;/font&gt;" style="text;html=1;align=center;verticalAlign=middle;resizable=0;points=[];autosize=1;strokeColor=none;fillColor=none;" vertex="1" parent="1">
          <mxGeometry x="368" y="418" width="90" height="30" as="geometry" />
        </mxCell>
        <mxCell id="d21k7wk4vE7VCG-q3FPW-44" value="&lt;font style=&quot;font-size: 9px;&quot;&gt;刪除訂餐者信息&lt;/font&gt;" style="text;html=1;align=center;verticalAlign=middle;resizable=0;points=[];autosize=1;strokeColor=none;fillColor=none;" vertex="1" parent="1">
          <mxGeometry x="495" y="388" width="90" height="30" as="geometry" />
        </mxCell>
        <mxCell id="d21k7wk4vE7VCG-q3FPW-45" value="&amp;lt;&amp;lt;include&amp;gt;&amp;gt;" style="endArrow=openThin;endSize=7;dashed=1;html=1;rounded=0;exitX=1;exitY=0.5;exitDx=0;exitDy=0;exitPerimeter=0;strokeColor=#fd0d0d;endFill=0;labelBackgroundColor=none;entryX=0;entryY=0.5;entryDx=0;entryDy=0;" edge="1" parent="1">
          <mxGeometry width="160" relative="1" as="geometry">
            <mxPoint x="330" y="308" as="sourcePoint" />
            <mxPoint x="505.0000000000073" y="318" as="targetPoint" />
          </mxGeometry>
        </mxCell>
        <mxCell id="d21k7wk4vE7VCG-q3FPW-46" value="&amp;lt;&amp;lt;include&amp;gt;&amp;gt;" style="endArrow=openThin;endSize=7;dashed=1;html=1;rounded=0;exitX=0.762;exitY=1.026;exitDx=0;exitDy=0;exitPerimeter=0;strokeColor=#fd0d0d;endFill=0;labelBackgroundColor=none;entryX=0.376;entryY=0.008;entryDx=0;entryDy=0;entryPerimeter=0;" edge="1" parent="1" source="d21k7wk4vE7VCG-q3FPW-10" target="d21k7wk4vE7VCG-q3FPW-41">
          <mxGeometry x="-0.0016" width="160" relative="1" as="geometry">
            <mxPoint x="341" y="365" as="sourcePoint" />
            <mxPoint x="416" y="350" as="targetPoint" />
            <mxPoint as="offset" />
          </mxGeometry>
        </mxCell>
        <mxCell id="d21k7wk4vE7VCG-q3FPW-47" value="&amp;lt;&amp;lt;include&amp;gt;&amp;gt;" style="endArrow=openThin;endSize=7;dashed=1;html=1;rounded=0;exitX=1;exitY=1;exitDx=0;exitDy=0;strokeColor=#fd0d0d;endFill=0;labelBackgroundColor=none;entryX=0.06;entryY=0.292;entryDx=0;entryDy=0;entryPerimeter=0;" edge="1" parent="1" source="d21k7wk4vE7VCG-q3FPW-10" target="d21k7wk4vE7VCG-q3FPW-40">
          <mxGeometry x="-0.0016" width="160" relative="1" as="geometry">
            <mxPoint x="334" y="321" as="sourcePoint" />
            <mxPoint x="500" y="380" as="targetPoint" />
            <mxPoint as="offset" />
          </mxGeometry>
        </mxCell>
      </root>
    </mxGraphModel>
  </diagram>
</mxfile>
